<svg xmlns="http://www.w3.org/2000/svg" width="980" height="260" viewBox="0 0 980 260" role="img" aria-labelledby="title desc">
  <title id="title">Deterministic execution infrastructure architecture</title>
  <desc id="desc">Fixed architecture diagram with the same node layout as the README Mermaid diagram, using connector lines without arrowheads.</desc>
  <defs>
    <style>
      .bg { fill: #0d1117; }
      .box { fill: #242424; stroke: #8f8f8f; stroke-width: 1.1; }
      .line { fill: none; stroke: #d7d7d7; stroke-width: 1.05; stroke-linecap: round; stroke-linejoin: round; opacity: 0.95; }
      .label-bg { fill: #666666; opacity: 0.9; }
      .text { fill: #f0f0f0; font-family: Arial, Helvetica, sans-serif; font-size: 13px; font-weight: 700; }
      .small { fill: #f0f0f0; font-family: Arial, Helvetica, sans-serif; font-size: 13px; font-weight: 700; }
    </style>
  </defs>

  <rect class="bg" x="0" y="0" width="980" height="260"/>

  <rect class="box" x="54" y="38" width="132" height="42"/>
  <text class="text" x="76" y="64">MarketSnapshot</text>

  <rect class="box" x="52" y="118" width="137" height="42"/>
  <text class="text" x="74" y="144">SignalInstruction</text>

  <rect class="box" x="60" y="198" width="122" height="42"/>
  <text class="text" x="82" y="224">PortfolioState</text>

  <rect class="box" x="227" y="142" width="130" height="42"/>
  <text class="text" x="250" y="168">ExecutionCycle</text>

  <rect class="box" x="242" y="64" width="100" height="42"/>
  <text class="text" x="266" y="90">RiskPolicy</text>

  <rect class="box" x="392" y="126" width="142" height="42"/>
  <text class="text" x="414" y="152">Risk Evaluation</text>

  <rect class="box" x="616" y="58" width="166" height="44"/>
  <text class="text" x="638" y="85">Fail-Closed Result</text>

  <rect class="box" x="616" y="142" width="138" height="42"/>
  <text class="text" x="638" y="168">ExecutionPlan</text>

  <rect class="box" x="790" y="198" width="176" height="42"/>
  <text class="text" x="812" y="224">Deterministic Slices</text>

  <rect class="box" x="805" y="88" width="112" height="42"/>
  <text class="text" x="831" y="114">AuditLedger</text>

  <path class="line" d="M186 59 C208 59 214 139 227 163"/>
  <path class="line" d="M189 139 C205 139 214 146 227 163"/>
  <path class="line" d="M182 219 C205 219 214 181 227 163"/>

  <path class="line" d="M342 85 C370 85 376 126 392 147"/>
  <path class="line" d="M357 163 C375 163 380 147 392 147"/>

  <path class="line" d="M534 143 C560 104 584 80 616 80"/>
  <rect class="label-bg" x="554" y="91" width="50" height="22"/>
  <text class="small" x="558" y="107">blocked</text>

  <path class="line" d="M534 151 C560 170 585 163 616 163"/>
  <rect class="label-bg" x="554" y="167" width="52" height="22"/>
  <text class="small" x="558" y="183">allowed</text>

  <path class="line" d="M534 143 C620 26 762 36 861 88"/>
  <path class="line" d="M782 80 C797 84 806 100 805 109"/>
  <path class="line" d="M754 163 C780 147 790 121 805 109"/>
  <path class="line" d="M754 163 C776 184 780 205 790 219"/>
</svg>
