<svg xmlns="http://www.w3.org/2000/svg" width="980" height="260" viewBox="0 0 980 260" role="img" aria-labelledby="title desc">
  <title id="title">Deterministic execution infrastructure architecture</title>
  <desc id="desc">Fixed architecture diagram with the same node layout as the README Mermaid diagram, using connector lines without arrowheads.</desc>
  <defs>
    <style>
      .bg { fill: #0d1117; }
      .box { fill: #242424; stroke: #8f8f8f; stroke-width: 1.1; }
      .line { fill: none; stroke: #d7d7d7; stroke-width: 1.05; stroke-linecap: round; stroke-linejoin: round; opacity: 0.95; }
      .label-bg { fill: #666666; opacity: 0.9; }
      .text { fill: #f0f0f0; font-family: Arial, Helvetica, sans-serif; font-size: 13px; font-weight: 700; }
      .small { fill: #f0f0f0; font-family: Arial, Helvetica, sans-serif; font-size: 13px; font-weight: 700; }
    </style>
  </defs>

  <rect class="bg" x="0" y="0" width="980" height="260"/>

  <rect class="box" x="54" y="38" width="132" height="42"/>
  <text class="text" x="76" y="64">MarketSnapshot</text>

  <rect class="box" x="52" y="118" width="137" height="42"/>
  <text class="text" x="74" y="144">SignalInstruction</text>

  <rect class="box" x="60" y="198" width="122" height="42"/>
  <text class="text" x="82" y="224">PortfolioState</text>

  <rect class="box" x="227" y="142" width="130" height="42"/>
  <text class="text" x="250" y="168">ExecutionCycle</text>

  <rect class="box" x="242" y="64" width="100" height="42"/>
  <text class="text" x="266" y="90">RiskPolicy</text>

  <rect class="box" x="395" y="126" width="128" height="42"/>
  <text class="text" x="418" y="152">Risk Evaluation</text>

  <rect class="box" x="604" y="64" width="144" height="42"/>
  <text class="text" x="627" y="90">Fail-Closed Result</text>

  <rect class="box" x="614" y="142" width="124" height="42"/>
  <text class="text" x="637" y="168">ExecutionPlan</text>

  <rect class="box" x="785" y="198" width="154" height="42"/>
  <text class="text" x="808" y="224">Deterministic Slices</text>

  <rect class="box" x="805" y="88" width="112" height="42"/>
  <text class="text" x="831" y="114">AuditLedger</text>

  <path class="line" d="M186 59 C208 59 214 139 227 163"/>
  <path class="line" d="M189 139 C205 139 214 146 227 163"/>
  <path class="line" d="M182 219 C205 219 214 181 227 163"/>

  <path class="line" d="M342 85 C370 85 376 126 395 147"/>
  <path class="line" d="M357 163 C375 163 380 147 395 147"/>

  <path class="line" d="M523 147 C548 101 568 86 604 85"/>
  <rect class="label-bg" x="542" y="76" width="46" height="22"/>
  <text class="small" x="544" y="92">blocked</text>

  <path class="line" d="M523 147 C548 148 574 161 614 163"/>
  <rect class="label-bg" x="542" y="154" width="49" height="22"/>
  <text class="small" x="544" y="170">allowed</text>

  <path class="line" d="M523 147 C610 32 736 36 861 88"/>
  <path class="line" d="M748 85 C774 85 786 105 805 109"/>
  <path class="line" d="M738 163 C765 147 781 121 805 109"/>
  <path class="line" d="M738 163 C760 185 770 205 785 219"/>
</svg>
