<svg xmlns="http://www.w3.org/2000/svg" width="1500" height="620" viewBox="0 0 1500 620" role="img" aria-labelledby="title desc">
  <title id="title">QDE-Systems Infrastructure public validation and boundary flow</title>
  <desc id="desc">Synthetic input flows through candidate validation, deterministic ordering, a risk gate, portfolio summary, audit trail, and a non-broker execution boundary.</desc>
  <rect width="1500" height="620" fill="#0b1117"/>
  <style>
    .box { fill:#232323; stroke:#8b8b8b; stroke-width:1.8; rx:0; }
    .boundary { fill:#181f27; stroke:#9ca3af; stroke-width:1.8; rx:0; }
    .label { fill:#f3f4f6; font-family:Inter,Arial,sans-serif; font-size:22px; font-weight:700; }
    .nodeLabel { fill:#f3f4f6; font-family:Inter,Arial,sans-serif; font-size:22px; font-weight:700; text-anchor:middle; dominant-baseline:middle; }
    .small { fill:#d1d5db; font-family:Inter,Arial,sans-serif; font-size:16px; font-weight:600; }
    .tagText { fill:#d1d5db; font-family:Inter,Arial,sans-serif; font-size:16px; font-weight:600; text-anchor:middle; dominant-baseline:middle; }
    .boundaryNote { fill:#d1d5db; font-family:Inter,Arial,sans-serif; font-size:16px; font-weight:600; text-anchor:middle; dominant-baseline:middle; }
    .line { fill:none; stroke:#c8c8c8; stroke-width:1.7; }
    .tag { fill:#62666d; }
  </style>

  <text x="70" y="62" class="label" font-size="30">QDE-Systems Infrastructure</text>
  <text x="70" y="95" class="small">Public synthetic validation harness - not private strategy logic, not broker execution</text>

  <path class="line" d="M290 285 C320 285 330 205 360 205"/>
  <path class="line" d="M290 285 C320 285 330 365 360 365"/>
  <path class="line" d="M580 205 C615 205 615 285 650 285"/>
  <path class="line" d="M580 365 C615 365 615 285 650 285"/>
  <path class="line" d="M900 285 L950 285"/>

  <path class="line" d="M1140 285 C1175 285 1190 165 1245 165"/>
  <path class="line" d="M1140 285 L1245 285"/>
  <path class="line" d="M1140 285 C1175 285 1190 405 1245 405"/>

  <path class="line" d="M1335 440 L1335 490"/>
  <path class="line" d="M1210 535 L1170 535"/>
  <path class="line" d="M880 535 L940 535"/>
  <path class="line" d="M470 400 C470 520 590 535 650 535"/>
  <path class="line" d="M1045 320 C1045 415 950 500 880 535"/>

  <rect class="box" x="80" y="250" width="210" height="70"/>
  <text class="nodeLabel" x="185" y="285">Synthetic Input</text>

  <rect class="box" x="360" y="170" width="220" height="70"/>
  <text class="nodeLabel" x="470" y="205">Candidate Set</text>

  <rect class="box" x="360" y="330" width="220" height="70"/>
  <text class="nodeLabel" x="470" y="365">Audit Trail</text>

  <rect class="box" x="650" y="250" width="250" height="70"/>
  <text class="nodeLabel" x="775" y="285">Deterministic Order</text>

  <rect class="box" x="950" y="250" width="190" height="70"/>
  <text class="nodeLabel" x="1045" y="285">Risk Gate</text>

  <rect class="tag" x="1160" y="156" width="70" height="34"/>
  <text class="tagText" x="1195" y="173">reject</text>
  <rect class="tag" x="1168" y="268" width="70" height="34"/>
  <text class="tagText" x="1203" y="285">block</text>
  <rect class="tag" x="1160" y="364" width="70" height="34"/>
  <text class="tagText" x="1195" y="381">allow</text>

  <rect class="box" x="1245" y="130" width="190" height="70"/>
  <text class="nodeLabel" x="1340" y="165">Rejected</text>

  <rect class="box" x="1245" y="250" width="190" height="70"/>
  <text class="nodeLabel" x="1340" y="285">Blocked</text>

  <rect class="box" x="1245" y="370" width="190" height="70"/>
  <text class="nodeLabel" x="1340" y="405">Accepted</text>

  <rect class="box" x="650" y="500" width="230" height="70"/>
  <text class="nodeLabel" x="765" y="535">Portfolio Summary</text>

  <rect class="box" x="940" y="500" width="230" height="70"/>
  <text class="nodeLabel" x="1055" y="535">Validation Result</text>

  <rect class="boundary" x="1210" y="490" width="250" height="84"/>
  <text class="nodeLabel" x="1335" y="524">Execution Boundary</text>
  <text class="boundaryNote" x="1335" y="552">no broker adapter</text>
</svg>
